<?xml version="1.0" encoding="utf-8"?>
<!-- Generator: Adobe Illustrator 15.0.0, SVG Export Plug-In . SVG Version: 6.00 Build 0)  -->
<!DOCTYPE svg PUBLIC "-//W3C//DTD SVG 1.1//EN" "http://www.w3.org/Graphics/SVG/1.1/DTD/svg11.dtd">
<svg version="1.1" id="Layer_1" xmlns="http://www.w3.org/2000/svg" xmlns:xlink="http://www.w3.org/1999/xlink" x="0px" y="0px"
	 width="800px" height="600px" viewBox="0 0 800 600" enable-background="new 0 0 800 600" xml:space="preserve">
<g>
	<path fill="#FF5050" d="M576.02,198.096L400.026,96.188l-176.02,101.907L47.987,300l176.02,101.906l176.02,101.905L576.02,401.906
		L752.013,300L576.02,198.096z M506,286h-22.9l-44.929,56h-11.943l-26.162-31.991L374.047,342h-11.943l-45.071-56H293v-13h59v13
		h-18.617l34.692,43.436l23.806-29.256L380,285.569V273h40v12.569l-11.744,14.503l23.915,29.363L466.749,286H447v-13h59V286z"/>
	<polygon fill="#FF5050" points="400.066,292.104 406.606,284 393.668,284 	"/>
</g>
</svg>
